<?xml version="1.0" encoding="utf-8"?>
<!-- Generator: Adobe Illustrator 15.0.2, SVG Export Plug-In . SVG Version: 6.00 Build 0)  -->
<!DOCTYPE svg PUBLIC "-//W3C//DTD SVG 1.1//EN" "http://www.w3.org/Graphics/SVG/1.1/DTD/svg11.dtd">
<svg version="1.1" id="Warstwa_1" xmlns="http://www.w3.org/2000/svg" xmlns:xlink="http://www.w3.org/1999/xlink" x="0px" y="0px"
	 width="56.375px" height="40.875px" viewBox="0 0 56.375 40.875" enable-background="new 0 0 56.375 40.875" xml:space="preserve">
<rect x="1.625" y="1.584" fill="#FFFFFF" stroke="#EA592B" stroke-width="3" stroke-miterlimit="10" width="53.158" height="37.764"/>
<g>
	<path fill="#EA5929" d="M23.146,25.959c0,1.206-0.19,2.307-0.57,3.303c-0.381,0.996-0.938,1.848-1.672,2.556
		c-0.733,0.708-1.645,1.255-2.732,1.642s-2.353,0.58-3.795,0.58c-1.061,0-2.084-0.124-3.066-0.373s-1.842-0.563-2.576-0.944v-4.679
		c0.328,0.275,0.712,0.53,1.15,0.767c0.439,0.236,0.908,0.442,1.406,0.619s1.01,0.314,1.533,0.413
		c0.524,0.099,1.042,0.147,1.553,0.147c0.434,0,0.883-0.079,1.348-0.236s0.881-0.419,1.248-0.786s0.668-0.849,0.904-1.445
		c0.236-0.596,0.354-1.333,0.354-2.212V11.94H8.932V7.949h14.215V25.959z"/>
	<path fill="#EA5929" d="M48.588,20.474c0,1.992-0.247,3.801-0.738,5.426c-0.492,1.626-1.259,3.012-2.301,4.158
		c-1.042,1.147-2.374,2.032-4,2.654c-1.625,0.623-3.571,0.935-5.839,0.935h-6.527V7.949h7.608c1.967,0,3.686,0.246,5.16,0.737
		c1.475,0.492,2.704,1.249,3.688,2.271c0.982,1.022,1.719,2.319,2.211,3.893C48.341,16.424,48.588,18.298,48.588,20.474z
		 M43.397,20.788c0-1.39-0.111-2.628-0.334-3.716c-0.224-1.088-0.602-2.009-1.132-2.763c-0.531-0.753-1.241-1.327-2.132-1.72
		C38.908,12.196,37.801,12,36.477,12H34.02v17.596h2.123c2.372,0,4.175-0.707,5.406-2.123
		C42.781,26.057,43.397,23.829,43.397,20.788z"/>
</g>
</svg>
