<?xml version="1.0" encoding="UTF-8"?><svg xmlns="http://www.w3.org/2000/svg" xmlns:xlink="http://www.w3.org/1999/xlink" fill-opacity="1" color-rendering="auto" color-interpolation="auto" text-rendering="auto" stroke="black" stroke-linecap="square" width="591" stroke-miterlimit="10" shape-rendering="auto" stroke-opacity="1" fill="black" stroke-dasharray="none" font-weight="normal" stroke-width="1" height="532" font-family="'Dialog'" font-style="normal" stroke-linejoin="miter" font-size="12px" stroke-dashoffset="0" image-rendering="auto">
  <!--Generated by ySVG 2.5-->
  <defs id="genericDefs"/>
  <g>
    <defs id="defs1">
      <clipPath clipPathUnits="userSpaceOnUse" id="clipPath1">
        <path d="M0 0 L591 0 L591 532 L0 532 L0 0 Z"/>
      </clipPath>
      <clipPath clipPathUnits="userSpaceOnUse" id="clipPath2">
        <path d="M242 -79 L833 -79 L833 453 L242 453 L242 -79 Z"/>
      </clipPath>
      <clipPath clipPathUnits="userSpaceOnUse" id="clipPath3">
        <path d="M429 -63 L429 40 L641 40 L641 -63 Z"/>
      </clipPath>
      <clipPath clipPathUnits="userSpaceOnUse" id="clipPath4">
        <path d="M288 239 L288 322 L492 322 L492 239 Z"/>
      </clipPath>
      <clipPath clipPathUnits="userSpaceOnUse" id="clipPath5">
        <path d="M585 239 L585 322 L789 322 L789 239 Z"/>
      </clipPath>
    </defs>
    <g fill="white" text-rendering="geometricPrecision" shape-rendering="geometricPrecision" transform="translate(-242,79)" stroke="white">
      <rect x="242" width="591" height="532" y="-79" clip-path="url(#clipPath2)" stroke="none"/>
    </g>
    <g fill="white" text-rendering="geometricPrecision" shape-rendering="geometricPrecision" transform="matrix(1,0,0,1,-242,79)" stroke="white">
      <rect x="429" width="212" height="103" y="-63.5" clip-path="url(#clipPath2)" stroke="none"/>
    </g>
    <g text-rendering="geometricPrecision" stroke-miterlimit="1.45" stroke-width="2" shape-rendering="geometricPrecision" transform="matrix(1,0,0,1,-242,79)" stroke-linecap="butt">
      <rect fill="none" x="429" width="212" height="103" y="-63.5" clip-path="url(#clipPath2)"/>
      <text x="497.9717" y="-47.6367" clip-path="url(#clipPath3)" font-family="'Arial'" stroke="none" stroke-width="1" xml:space="preserve">&lt;&lt;interface&gt;&gt;</text>
    </g>
    <g font-size="18px" stroke-linecap="butt" transform="matrix(1,0,0,1,-242,79)" text-rendering="geometricPrecision" font-family="'Arial'" shape-rendering="geometricPrecision" font-weight="bold" stroke-miterlimit="1.45">
      <text x="443.9541" xml:space="preserve" y="-19.7988" clip-path="url(#clipPath3)" stroke="none">FabrykaAbstrakcyjna</text>
    </g>
    <g text-rendering="geometricPrecision" shape-rendering="geometricPrecision" transform="matrix(1,0,0,1,-242,79)">
      <line y2="-10" fill="none" x1="430" clip-path="url(#clipPath3)" x2="640" y1="-10"/>
      <line y2="0" fill="none" x1="430" clip-path="url(#clipPath3)" x2="640" y1="0"/>
      <text stroke-linecap="butt" x="434" y="14.8789" clip-path="url(#clipPath3)" font-family="'Arial'" stroke="none" stroke-miterlimit="1.45" xml:space="preserve">utwórzProduktA()</text>
      <text stroke-linecap="butt" x="434" y="28.2852" clip-path="url(#clipPath3)" font-family="'Arial'" stroke="none" stroke-miterlimit="1.45" xml:space="preserve">utwórzProduktB()</text>
      <rect x="305.3" y="109.5" clip-path="url(#clipPath2)" fill="white" width="183.2" height="76" stroke="none"/>
      <rect stroke-linecap="butt" x="305.3" y="109.5" clip-path="url(#clipPath2)" fill="none" width="183.2" height="76" stroke-width="2" stroke-miterlimit="1.45"/>
    </g>
    <g font-size="18px" stroke-linecap="butt" transform="matrix(1,0,0,1,-242,79)" text-rendering="geometricPrecision" font-family="'Arial'" shape-rendering="geometricPrecision" font-weight="bold" stroke-miterlimit="1.45">
      <text x="312.8678" xml:space="preserve" y="130.7949" clip-path="url(#clipPath2)" stroke="none">FabrykaKonkretna1</text>
    </g>
    <g text-rendering="geometricPrecision" shape-rendering="geometricPrecision" transform="matrix(1,0,0,1,-242,79)">
      <line y2="139" fill="none" x1="306" clip-path="url(#clipPath2)" x2="487" y1="139"/>
      <line y2="149" fill="none" x1="306" clip-path="url(#clipPath2)" x2="487" y1="149"/>
      <text stroke-linecap="butt" x="310.3" y="165.4727" clip-path="url(#clipPath2)" font-family="'Arial'" stroke="none" stroke-miterlimit="1.45" xml:space="preserve">utwórzProduktA()</text>
      <text stroke-linecap="butt" x="310.3" y="178.8789" clip-path="url(#clipPath2)" font-family="'Arial'" stroke="none" stroke-miterlimit="1.45" xml:space="preserve">utwórzProduktB()</text>
      <rect x="589.75" y="109.5" clip-path="url(#clipPath2)" fill="white" width="188.32" height="76" stroke="none"/>
      <rect stroke-linecap="butt" x="589.75" y="109.5" clip-path="url(#clipPath2)" fill="none" width="188.32" height="76" stroke-width="2" stroke-miterlimit="1.45"/>
    </g>
    <g font-size="18px" stroke-linecap="butt" transform="matrix(1,0,0,1,-242,79)" text-rendering="geometricPrecision" font-family="'Arial'" shape-rendering="geometricPrecision" font-weight="bold" stroke-miterlimit="1.45">
      <text x="599.8777" xml:space="preserve" y="130.7949" clip-path="url(#clipPath2)" stroke="none">FabrykaKonkretna2</text>
    </g>
    <g text-rendering="geometricPrecision" shape-rendering="geometricPrecision" transform="matrix(1,0,0,1,-242,79)">
      <line y2="139" fill="none" x1="590" clip-path="url(#clipPath2)" x2="777" y1="139"/>
      <line y2="149" fill="none" x1="590" clip-path="url(#clipPath2)" x2="777" y1="149"/>
      <text stroke-linecap="butt" x="594.75" y="165.4727" clip-path="url(#clipPath2)" font-family="'Arial'" stroke="none" stroke-miterlimit="1.45" xml:space="preserve">utwórzProduktA()</text>
      <text stroke-linecap="butt" x="594.75" y="178.8789" clip-path="url(#clipPath2)" font-family="'Arial'" stroke="none" stroke-miterlimit="1.45" xml:space="preserve">utwórzProduktB()</text>
      <rect x="288.02" y="239" clip-path="url(#clipPath2)" fill="white" width="204.32" height="83" stroke="none"/>
      <rect stroke-linecap="butt" x="288.02" y="239" clip-path="url(#clipPath2)" fill="none" width="204.32" height="83" stroke-width="2" stroke-miterlimit="1.45"/>
      <text stroke-linecap="butt" x="353.1517" y="254.8633" clip-path="url(#clipPath4)" font-family="'Arial'" stroke="none" stroke-miterlimit="1.45" xml:space="preserve">&lt;&lt;interface&gt;&gt;</text>
    </g>
    <g font-size="18px" stroke-linecap="butt" transform="matrix(1,0,0,1,-242,79)" text-rendering="geometricPrecision" font-family="'Arial'" shape-rendering="geometricPrecision" font-weight="bold" stroke-miterlimit="1.45">
      <text x="293.1531" xml:space="preserve" y="282.7012" clip-path="url(#clipPath4)" stroke="none">ProduktAbstrakcyjnyA</text>
    </g>
    <g text-rendering="geometricPrecision" shape-rendering="geometricPrecision" transform="matrix(1,0,0,1,-242,79)">
      <line y2="291" fill="none" x1="289" clip-path="url(#clipPath4)" x2="491" y1="291"/>
      <line y2="301" fill="none" x1="289" clip-path="url(#clipPath4)" x2="491" y1="301"/>
      <text stroke-linecap="butt" x="293.02" y="317.3789" clip-path="url(#clipPath4)" font-family="'Arial'" stroke="none" stroke-miterlimit="1.45" xml:space="preserve"> utwórzProduktA()</text>
      <rect x="585.59" y="239" clip-path="url(#clipPath2)" fill="white" width="204.32" height="83" stroke="none"/>
      <rect stroke-linecap="butt" x="585.59" y="239" clip-path="url(#clipPath2)" fill="none" width="204.32" height="83" stroke-width="2" stroke-miterlimit="1.45"/>
      <text stroke-linecap="butt" x="650.7217" y="254.8633" clip-path="url(#clipPath5)" font-family="'Arial'" stroke="none" stroke-miterlimit="1.45" xml:space="preserve">&lt;&lt;interface&gt;&gt;</text>
    </g>
    <g font-size="18px" stroke-linecap="butt" transform="matrix(1,0,0,1,-242,79)" text-rendering="geometricPrecision" font-family="'Arial'" shape-rendering="geometricPrecision" font-weight="bold" stroke-miterlimit="1.45">
      <text x="590.7231" xml:space="preserve" y="282.7012" clip-path="url(#clipPath5)" stroke="none">ProduktAbstrakcyjnyB</text>
    </g>
    <g text-rendering="geometricPrecision" shape-rendering="geometricPrecision" transform="matrix(1,0,0,1,-242,79)">
      <line y2="291" fill="none" x1="586" clip-path="url(#clipPath5)" x2="788" y1="291"/>
      <line y2="301" fill="none" x1="586" clip-path="url(#clipPath5)" x2="788" y1="301"/>
      <text stroke-linecap="butt" x="590.59" y="317.3789" clip-path="url(#clipPath5)" font-family="'Arial'" stroke="none" stroke-miterlimit="1.45" xml:space="preserve"> utwórzProduktB()</text>
      <rect x="257.32" y="375.5" clip-path="url(#clipPath2)" fill="white" width="130.84" height="62" stroke="none"/>
      <rect stroke-linecap="butt" x="257.32" y="375.5" clip-path="url(#clipPath2)" fill="none" width="130.84" height="62" stroke-width="2" stroke-miterlimit="1.45"/>
    </g>
    <g font-size="18px" stroke-linecap="butt" transform="matrix(1,0,0,1,-242,79)" text-rendering="geometricPrecision" font-family="'Arial'" shape-rendering="geometricPrecision" font-weight="bold" stroke-miterlimit="1.45">
      <text x="277.2346" xml:space="preserve" y="396.7949" clip-path="url(#clipPath2)" stroke="none">ProduktA1</text>
    </g>
    <g text-rendering="geometricPrecision" shape-rendering="geometricPrecision" transform="matrix(1,0,0,1,-242,79)">
      <line y2="405" fill="none" x1="258" clip-path="url(#clipPath2)" x2="387" y1="405"/>
      <line y2="415" fill="none" x1="258" clip-path="url(#clipPath2)" x2="387" y1="415"/>
      <text stroke-linecap="butt" x="262.32" y="431.4727" clip-path="url(#clipPath2)" font-family="'Arial'" stroke="none" stroke-miterlimit="1.45" xml:space="preserve"> utwórzProduktA()</text>
      <rect x="409.16" y="375.5" clip-path="url(#clipPath2)" fill="white" width="120.23" height="62" stroke="none"/>
      <rect stroke-linecap="butt" x="409.16" y="375.5" clip-path="url(#clipPath2)" fill="none" width="120.23" height="62" stroke-width="2" stroke-miterlimit="1.45"/>
    </g>
    <g font-size="18px" stroke-linecap="butt" transform="matrix(1,0,0,1,-242,79)" text-rendering="geometricPrecision" font-family="'Arial'" shape-rendering="geometricPrecision" font-weight="bold" stroke-miterlimit="1.45">
      <text x="423.7696" xml:space="preserve" y="396.7949" clip-path="url(#clipPath2)" stroke="none">ProduktA2</text>
    </g>
    <g text-rendering="geometricPrecision" shape-rendering="geometricPrecision" transform="matrix(1,0,0,1,-242,79)">
      <line y2="405" fill="none" x1="410" clip-path="url(#clipPath2)" x2="528" y1="405"/>
      <line y2="415" fill="none" x1="410" clip-path="url(#clipPath2)" x2="528" y1="415"/>
      <text stroke-linecap="butt" x="414.16" y="431.4727" clip-path="url(#clipPath2)" font-family="'Arial'" stroke="none" stroke-miterlimit="1.45" xml:space="preserve"> utwórzProduktA()</text>
      <rect x="550.39" y="375.5" clip-path="url(#clipPath2)" fill="white" width="125.99" height="62" stroke="none"/>
      <rect stroke-linecap="butt" x="550.39" y="375.5" clip-path="url(#clipPath2)" fill="none" width="125.99" height="62" stroke-width="2" stroke-miterlimit="1.45"/>
    </g>
    <g font-size="18px" stroke-linecap="butt" transform="matrix(1,0,0,1,-242,79)" text-rendering="geometricPrecision" font-family="'Arial'" shape-rendering="geometricPrecision" font-weight="bold" stroke-miterlimit="1.45">
      <text x="567.8796" xml:space="preserve" y="396.7949" clip-path="url(#clipPath2)" stroke="none">ProduktB1</text>
    </g>
    <g text-rendering="geometricPrecision" shape-rendering="geometricPrecision" transform="matrix(1,0,0,1,-242,79)">
      <line y2="405" fill="none" x1="551" clip-path="url(#clipPath2)" x2="675" y1="405"/>
      <line y2="415" fill="none" x1="551" clip-path="url(#clipPath2)" x2="675" y1="415"/>
      <text stroke-linecap="butt" x="555.39" y="431.4727" clip-path="url(#clipPath2)" font-family="'Arial'" stroke="none" stroke-miterlimit="1.45" xml:space="preserve"> utwórzProduktB()</text>
      <rect x="697.38" y="375.5" clip-path="url(#clipPath2)" fill="white" width="120.23" height="62" stroke="none"/>
      <rect stroke-linecap="butt" x="697.38" y="375.5" clip-path="url(#clipPath2)" fill="none" width="120.23" height="62" stroke-width="2" stroke-miterlimit="1.45"/>
    </g>
    <g font-size="18px" stroke-linecap="butt" transform="matrix(1,0,0,1,-242,79)" text-rendering="geometricPrecision" font-family="'Arial'" shape-rendering="geometricPrecision" font-weight="bold" stroke-miterlimit="1.45">
      <text x="711.9896" xml:space="preserve" y="396.7949" clip-path="url(#clipPath2)" stroke="none">ProduktB2</text>
    </g>
    <g text-rendering="geometricPrecision" shape-rendering="geometricPrecision" transform="matrix(1,0,0,1,-242,79)">
      <line y2="405" fill="none" x1="698" clip-path="url(#clipPath2)" x2="816" y1="405"/>
      <line y2="415" fill="none" x1="698" clip-path="url(#clipPath2)" x2="816" y1="415"/>
      <text stroke-linecap="butt" x="702.38" y="431.4727" clip-path="url(#clipPath2)" font-family="'Arial'" stroke="none" stroke-miterlimit="1.45" xml:space="preserve"> utwórzProduktB()</text>
      <path fill="none" stroke-miterlimit="1.45" stroke-dasharray="6,2" d="M429.7898 109.5136 L480.6161 50.8112" clip-path="url(#clipPath2)" stroke-linecap="butt"/>
    </g>
    <g stroke-linecap="butt" transform="matrix(1,0,0,1,-242,79)" fill="white" text-rendering="geometricPrecision" shape-rendering="geometricPrecision" stroke-dasharray="6,2" stroke="white" stroke-miterlimit="1.45">
      <path d="M490.4346 39.4712 L475.4255 47.6398 L484.4975 55.4947 Z" stroke="none" clip-path="url(#clipPath2)"/>
      <path fill="none" stroke-dasharray="none" d="M490.4346 39.4712 L475.4255 47.6398 L484.4975 55.4947 Z" clip-path="url(#clipPath2)" stroke="black"/>
      <path fill="none" d="M648.4457 109.5136 L593.2902 50.4356" clip-path="url(#clipPath2)" stroke="black"/>
      <path d="M583.0538 39.4712 L589.5869 55.2611 L598.3583 47.072 Z" clip-path="url(#clipPath2)" stroke="none"/>
      <path fill="none" stroke-dasharray="none" d="M583.0538 39.4712 L589.5869 55.2611 L598.3583 47.072 Z" clip-path="url(#clipPath2)" stroke="black"/>
      <path fill="none" stroke-dasharray="none" d="M305.3273 147.5 L269.1038 147.5 L269.1038 364.4822" clip-path="url(#clipPath2)" stroke="black"/>
      <path fill="black" stroke-dasharray="none" d="M269.1038 375.4822 L275.1038 363.4822 L263.1038 363.4822 Z" clip-path="url(#clipPath2)" stroke="none"/>
      <path fill="none" d="M339.3201 375.5229 L360.8876 335.2278" clip-path="url(#clipPath2)" stroke="black"/>
      <path d="M367.966 322.0029 L355.1258 333.278 L365.7056 338.9408 Z" clip-path="url(#clipPath2)" stroke="none"/>
      <path fill="none" stroke-dasharray="none" d="M367.966 322.0029 L355.1258 333.278 L365.7056 338.9408 Z" clip-path="url(#clipPath2)" stroke="black"/>
      <path fill="none" stroke-dasharray="none" d="M589.7668 147.5 L516.4717 147.5 L516.4717 364.4886" clip-path="url(#clipPath2)" stroke="black"/>
      <path fill="black" stroke-dasharray="none" d="M516.4717 375.4886 L522.4717 363.4886 L510.4717 363.4886 Z" clip-path="url(#clipPath2)" stroke="none"/>
      <path fill="none" d="M449.8295 375.5229 L424.2079 334.7072" clip-path="url(#clipPath2)" stroke="black"/>
      <path d="M416.233 322.0029 L419.6579 338.7442 L429.8214 332.3642 Z" clip-path="url(#clipPath2)" stroke="none"/>
      <path fill="none" stroke-dasharray="none" d="M416.233 322.0029 L419.6579 338.7442 L429.8214 332.3642 Z" clip-path="url(#clipPath2)" stroke="black"/>
      <path fill="none" stroke-dasharray="none" d="M488.5016 121.5 L562.4987 121.5 L562.4987 364.4876" clip-path="url(#clipPath2)" stroke="black"/>
      <path fill="black" stroke-dasharray="none" d="M562.4987 375.4876 L568.4987 363.4876 L556.4987 363.4876 Z" clip-path="url(#clipPath2)" stroke="none"/>
      <path fill="none" d="M631.6676 375.5229 L655.6309 334.9209" clip-path="url(#clipPath2)" stroke="black"/>
      <path d="M663.255 322.0029 L649.9554 332.7324 L660.2898 338.8317 Z" clip-path="url(#clipPath2)" stroke="none"/>
      <path fill="none" stroke-dasharray="none" d="M663.255 322.0029 L649.9554 332.7324 L660.2898 338.8317 Z" clip-path="url(#clipPath2)" stroke="black"/>
      <path fill="none" stroke-dasharray="none" d="M778.0699 147.5 L806.6985 147.5 L806.6985 364.4645" clip-path="url(#clipPath2)" stroke="black"/>
      <path fill="black" stroke-dasharray="none" d="M806.6985 375.4645 L812.6985 363.4645 L800.6985 363.4645 Z" clip-path="url(#clipPath2)" stroke="none"/>
      <path fill="none" d="M740.3482 375.5229 L717.9875 335.1266" clip-path="url(#clipPath2)" stroke="black"/>
      <path d="M710.7232 322.0029 L713.2224 338.9072 L723.7213 333.0957 Z" clip-path="url(#clipPath2)" stroke="none"/>
      <path fill="none" stroke-dasharray="none" d="M710.7232 322.0029 L713.2224 338.9072 L723.7213 333.0957 Z" clip-path="url(#clipPath2)" stroke="black"/>
    </g>
  </g>
</svg>
