<!DOCTYPE svg PUBLIC "-//W3C//DTD SVG 1.1//EN" "http://www.w3.org/Graphics/SVG/1.1/DTD/svg11.dtd">
<svg xmlns="http://www.w3.org/2000/svg" xmlns:xlink="http://www.w3.org/1999/xlink" version="1.1" width="291px" height="271px" viewBox="-0.5 -0.5 291 271" style="background-color: rgb(255, 255, 255);"><defs/><g><rect x="0" y="20" width="290" height="100" fill="#ffffff" stroke="#000000" pointer-events="none"/><rect x="0" y="0" width="170" height="20" fill="#ffffff" stroke="#000000" pointer-events="none"/><g fill="#000000" font-family="Helvetica" font-weight="bold" text-anchor="middle" font-size="13px"><text x="84.5" y="14">Moduł wysokiego poziomu</text></g><rect x="0" y="170" width="290" height="100" fill="#ffffff" stroke="#000000" pointer-events="none"/><rect x="0" y="150" width="170" height="20" fill="#ffffff" stroke="#000000" pointer-events="none"/><g fill="#000000" font-family="Helvetica" font-weight="bold" text-anchor="middle" font-size="13px"><text x="84.5" y="164">Moduł niskiego poziomu</text></g><rect x="20" y="49" width="85" height="40" fill="#ffffff" stroke="#000000" pointer-events="none"/><g fill="#000000" font-family="Helvetica" font-weight="bold" text-anchor="middle" font-size="13px"><text x="62" y="73">TaskService</text></g><rect x="173" y="49" width="100" height="40" fill="#ffffff" stroke="#000000" pointer-events="none"/><g fill="#000000" font-family="Helvetica" font-weight="bold" text-anchor="middle" font-size="13px"><text x="222.5" y="73">Repository</text></g><rect x="173" y="198" width="100" height="40" fill="#ffffff" stroke="#000000" pointer-events="none"/><g fill="#000000" font-family="Helvetica" font-weight="bold" text-anchor="middle" font-size="13px"><text x="222.5" y="222">FileRepository</text></g><path d="M 105.29 69.14 L 165.17 69.14" fill="none" stroke="#000000" stroke-miterlimit="10" pointer-events="none"/><path d="M 172.17 69.14 L 165.17 72.64 L 165.17 65.64 Z" fill="#000000" stroke="#000000" stroke-miterlimit="10" pointer-events="none"/><path d="M 223 198.29 L 223 97.12" fill="none" stroke="#000000" stroke-miterlimit="10" stroke-dasharray="3 3" pointer-events="none"/><path d="M 223 90.12 L 226.5 97.12 L 219.5 97.12 Z" fill="none" stroke="#000000" stroke-miterlimit="10" pointer-events="none"/></g></svg>