<!DOCTYPE svg PUBLIC "-//W3C//DTD SVG 1.1//EN" "http://www.w3.org/Graphics/SVG/1.1/DTD/svg11.dtd">
<svg xmlns="http://www.w3.org/2000/svg" style="background-color: rgb(255, 255, 255);" xmlns:xlink="http://www.w3.org/1999/xlink" version="1.1" width="529px" height="305px" viewBox="-0.5 -0.5 529 305"><defs><clipPath id="mx-clip-332-230-192-76-0"><rect x="332" y="230" width="192" height="76"/></clipPath><clipPath id="mx-clip-332-39-192-56-0"><rect x="332" y="39" width="192" height="56"/></clipPath></defs><g><path d="M 428 191 L 428 109.12" fill="none" stroke="#000000" stroke-miterlimit="10" pointer-events="none"/><path d="M 428 92.12 L 436.5 109.12 L 419.5 109.12 Z" fill="none" stroke="#000000" stroke-miterlimit="10" pointer-events="none"/><path d="M 95 191 L 95.14 109.28" fill="none" stroke="#000000" stroke-miterlimit="10" pointer-events="none"/><path d="M 95.16 92.28 L 103.64 109.3 L 86.64 109.27 Z" fill="none" stroke="#000000" stroke-miterlimit="10" pointer-events="none"/><path d="M 328 246 L 196.24 246" fill="none" stroke="#000000" stroke-miterlimit="10" stroke-dasharray="3 3" pointer-events="none"/><path d="M 208.12 239.5 L 195.12 246 L 208.12 252.5" fill="none" stroke="#000000" stroke-miterlimit="10" pointer-events="none"/><path d="M 0 26 L 0 0 L 190 0 L 190 26" fill="none" stroke="#000000" stroke-miterlimit="10" pointer-events="none"/><path d="M 0 26 L 0 90 L 190 90 L 190 26" fill="none" stroke="#000000" stroke-miterlimit="10" pointer-events="none"/><path d="M 0 26 L 190 26" fill="none" stroke="#000000" stroke-miterlimit="10" pointer-events="none"/><g fill="#000000" font-family="Helvetica" font-weight="bold" text-anchor="middle" font-size="18px"><text x="94.5" y="20.5">Produkt</text></g><rect x="0" y="191" width="190" height="100" fill="#ffffff" stroke="#000000" pointer-events="none"/><g fill="#000000" font-family="Helvetica" font-weight="bold" text-anchor="middle" font-size="18px"><text x="94.5" y="247.5">ProduktKonkretny</text></g><path d="M 328 217 L 328 191 L 528 191 L 528 217" fill="#ffffff" stroke="#000000" stroke-miterlimit="10" pointer-events="none"/><path d="M 328 217 L 328 301 L 528 301 L 528 217" fill="none" stroke="#000000" stroke-miterlimit="10" pointer-events="none"/><path d="M 328 217 L 528 217" fill="none" stroke="#000000" stroke-miterlimit="10" pointer-events="none"/><g fill="#000000" font-family="Helvetica" font-weight="bold" text-anchor="middle" font-size="18px"><text x="427.5" y="211.5">FabrykaKonkretna</text></g><path d="M 328 221 L 528 221" fill="none" stroke="#000000" stroke-miterlimit="10" pointer-events="none"/><g fill="#000000" font-family="Helvetica" clip-path="url(#mx-clip-332-230-192-76-0)" font-size="16px"><text x="333.5" y="246.5">+ metodaFabrykująca()</text></g><path d="M 328 26 L 328 0 L 528 0 L 528 26" fill="#ffffff" stroke="#000000" stroke-miterlimit="10" pointer-events="none"/><path d="M 328 26 L 328 90 L 528 90 L 528 26" fill="none" stroke="#000000" stroke-miterlimit="10" pointer-events="none"/><path d="M 328 26 L 528 26" fill="none" stroke="#000000" stroke-miterlimit="10" pointer-events="none"/><g fill="#000000" font-family="Helvetica" font-weight="bold" text-anchor="middle" font-size="18px"><text x="427.5" y="20.5">Fabryka</text></g><path d="M 328 30 L 528 30" fill="none" stroke="#000000" stroke-miterlimit="10" pointer-events="none"/><g fill="#000000" font-family="Helvetica" clip-path="url(#mx-clip-332-39-192-56-0)" font-size="16px"><text x="333.5" y="55.5">+ metodaFabrykująca()</text></g></g></svg>