<!DOCTYPE svg PUBLIC "-//W3C//DTD SVG 1.1//EN" "http://www.w3.org/Graphics/SVG/1.1/DTD/svg11.dtd">
<svg xmlns="http://www.w3.org/2000/svg" style="background-color: rgb(255, 255, 255);" xmlns:xlink="http://www.w3.org/1999/xlink" version="1.1" width="652px" height="233px" viewBox="-0.5 -0.5 652 233"><defs><clipPath id="mx-clip-175-26-302-24-0"><rect x="175" y="26" width="302" height="24"/></clipPath><clipPath id="mx-clip-175-54-302-22-0"><rect x="175" y="54" width="302" height="22"/></clipPath><clipPath id="mx-clip-4-206-302-24-0"><rect x="4" y="206" width="302" height="24"/></clipPath><clipPath id="mx-clip-345-206-302-24-0"><rect x="345" y="206" width="302" height="24"/></clipPath></defs><g><path d="M 156 180 L 252.23 84.71" fill="none" stroke="#000000" stroke-miterlimit="10" pointer-events="none"/><path d="M 257.21 79.79 L 254.69 87.2 L 249.77 82.22 Z" fill="none" stroke="#000000" stroke-miterlimit="10" pointer-events="none"/><path d="M 495 180 L 406.56 85.91" fill="none" stroke="#000000" stroke-miterlimit="10" pointer-events="none"/><path d="M 401.77 80.81 L 409.11 83.52 L 404.01 88.31 Z" fill="none" stroke="#000000" stroke-miterlimit="10" pointer-events="none"/><path d="M 171 26 L 171 0 L 481 0 L 481 26" fill="none" stroke="#000000" stroke-miterlimit="10" pointer-events="none"/><path d="M 171 26 L 171 78 L 481 78 L 481 26" fill="none" stroke="#000000" stroke-miterlimit="10" pointer-events="none"/><path d="M 171 26 L 481 26" fill="none" stroke="#000000" stroke-miterlimit="10" pointer-events="none"/><g fill="#000000" font-family="Helvetica" font-weight="bold" text-anchor="middle" font-size="18px"><text x="325.5" y="20.5">CarManufacture</text></g><g fill="#000000" font-family="Helvetica" clip-path="url(#mx-clip-175-26-302-24-0)" font-size="16px"><text x="176.5" y="43.5">createCar()</text></g><g fill="#000000" font-family="Helvetica" clip-path="url(#mx-clip-175-54-302-22-0)" font-size="16px"><text x="176.5" y="70.5">manufactureCar()</text></g><path d="M 0 206 L 0 180 L 310 180 L 310 206" fill="none" stroke="#000000" stroke-miterlimit="10" pointer-events="none"/><path d="M 0 206 L 0 232 L 310 232 L 310 206" fill="none" stroke="#000000" stroke-miterlimit="10" pointer-events="none"/><path d="M 0 206 L 310 206" fill="none" stroke="#000000" stroke-miterlimit="10" pointer-events="none"/><g fill="#000000" font-family="Helvetica" font-weight="bold" text-anchor="middle" font-size="18px"><text x="154.5" y="200.5">EuropeanManufacture</text></g><g fill="#000000" font-family="Helvetica" clip-path="url(#mx-clip-4-206-302-24-0)" font-size="16px"><text x="5.5" y="223.5">createCar()</text></g><path d="M 341 206 L 341 180 L 651 180 L 651 206" fill="none" stroke="#000000" stroke-miterlimit="10" pointer-events="none"/><path d="M 341 206 L 341 232 L 651 232 L 651 206" fill="none" stroke="#000000" stroke-miterlimit="10" pointer-events="none"/><path d="M 341 206 L 651 206" fill="none" stroke="#000000" stroke-miterlimit="10" pointer-events="none"/><g fill="#000000" font-family="Helvetica" font-weight="bold" text-anchor="middle" font-size="18px"><text x="495.5" y="200.5">AmericanManufacture</text></g><g fill="#000000" font-family="Helvetica" clip-path="url(#mx-clip-345-206-302-24-0)" font-size="16px"><text x="346.5" y="223.5">createCar()</text></g></g></svg>