<!DOCTYPE svg PUBLIC "-//W3C//DTD SVG 1.1//EN" "http://www.w3.org/Graphics/SVG/1.1/DTD/svg11.dtd">
<svg xmlns="http://www.w3.org/2000/svg" style="background-color: rgb(255, 255, 255);" xmlns:xlink="http://www.w3.org/1999/xlink" version="1.1" width="659px" height="345px" viewBox="-0.5 -0.5 659 345"><defs/><g><path d="M 142 136 L 237.43 66.77" fill="none" stroke="#000000" stroke-miterlimit="10" pointer-events="none"/><path d="M 243.1 62.66 L 239.48 69.6 L 235.37 63.93 Z" fill="none" stroke="#000000" stroke-miterlimit="10" pointer-events="none"/><path d="M 481 136 L 393.41 67.98" fill="none" stroke="#000000" stroke-miterlimit="10" pointer-events="none"/><path d="M 387.88 63.69 L 395.56 65.21 L 391.26 70.74 Z" fill="none" stroke="#000000" stroke-miterlimit="10" pointer-events="none"/><path d="M 156 26 L 156 0 L 467 0 L 467 26" fill="none" stroke="#000000" stroke-miterlimit="10" pointer-events="none"/><path d="M 156 26 L 156 62 L 467 62 L 467 26" fill="none" stroke="#000000" stroke-miterlimit="10" pointer-events="none"/><path d="M 156 26 L 467 26" fill="none" stroke="#000000" stroke-miterlimit="10" pointer-events="none"/><g fill="#000000" font-family="Helvetica" font-weight="bold" text-anchor="middle" font-size="18px"><text x="311" y="20.5">Car</text></g><path d="M 0.5 162 L 0.5 136 L 311.5 136 L 311.5 162" fill="none" stroke="#000000" stroke-miterlimit="10" pointer-events="none"/><path d="M 0.5 162 L 0.5 198 L 311.5 198 L 311.5 162" fill="none" stroke="#000000" stroke-miterlimit="10" pointer-events="none"/><path d="M 0.5 162 L 311.5 162" fill="none" stroke="#000000" stroke-miterlimit="10" pointer-events="none"/><g fill="#000000" font-family="Helvetica" font-weight="bold" text-anchor="middle" font-size="18px"><text x="155.5" y="156.5">EuropeanAudi</text></g><path d="M 0.5 235 L 0.5 209 L 311.5 209 L 311.5 235" fill="none" stroke="#000000" stroke-miterlimit="10" pointer-events="none"/><path d="M 0.5 235 L 0.5 271 L 311.5 271 L 311.5 235" fill="none" stroke="#000000" stroke-miterlimit="10" pointer-events="none"/><path d="M 0.5 235 L 311.5 235" fill="none" stroke="#000000" stroke-miterlimit="10" pointer-events="none"/><g fill="#000000" font-family="Helvetica" font-weight="bold" text-anchor="middle" font-size="18px"><text x="155.5" y="229.5">EuropeanFerrari</text></g><path d="M 0.5 308 L 0.5 282 L 311.5 282 L 311.5 308" fill="none" stroke="#000000" stroke-miterlimit="10" pointer-events="none"/><path d="M 0.5 308 L 0.5 344 L 311.5 344 L 311.5 308" fill="none" stroke="#000000" stroke-miterlimit="10" pointer-events="none"/><path d="M 0.5 308 L 311.5 308" fill="none" stroke="#000000" stroke-miterlimit="10" pointer-events="none"/><g fill="#000000" font-family="Helvetica" font-weight="bold" text-anchor="middle" font-size="18px"><text x="155.5" y="302.5">EuropeanVolvo</text></g><path d="M 347 162 L 347 136 L 658 136 L 658 162" fill="none" stroke="#000000" stroke-miterlimit="10" pointer-events="none"/><path d="M 347 162 L 347 198 L 658 198 L 658 162" fill="none" stroke="#000000" stroke-miterlimit="10" pointer-events="none"/><path d="M 347 162 L 658 162" fill="none" stroke="#000000" stroke-miterlimit="10" pointer-events="none"/><g fill="#000000" font-family="Helvetica" font-weight="bold" text-anchor="middle" font-size="18px"><text x="502" y="156.5">AmericanAudi</text></g><path d="M 347 235 L 347 209 L 658 209 L 658 235" fill="none" stroke="#000000" stroke-miterlimit="10" pointer-events="none"/><path d="M 347 235 L 347 271 L 658 271 L 658 235" fill="none" stroke="#000000" stroke-miterlimit="10" pointer-events="none"/><path d="M 347 235 L 658 235" fill="none" stroke="#000000" stroke-miterlimit="10" pointer-events="none"/><g fill="#000000" font-family="Helvetica" font-weight="bold" text-anchor="middle" font-size="18px"><text x="502" y="229.5">AmericanFerrari</text></g><path d="M 347 308 L 347 282 L 658 282 L 658 308" fill="none" stroke="#000000" stroke-miterlimit="10" pointer-events="none"/><path d="M 347 308 L 347 344 L 658 344 L 658 308" fill="none" stroke="#000000" stroke-miterlimit="10" pointer-events="none"/><path d="M 347 308 L 658 308" fill="none" stroke="#000000" stroke-miterlimit="10" pointer-events="none"/><g fill="#000000" font-family="Helvetica" font-weight="bold" text-anchor="middle" font-size="18px"><text x="502" y="302.5">AmericanVolvo</text></g></g></svg>